<svg xmlns="http://www.w3.org/2000/svg" width="86" height="28" viewBox="0 0 86 28">
  <g fill="#fff">
    <g transform="scale(0.28) translate(-22 -8.8)">
      <path d="M24 62 L74 45 Q78 44 78 49 L78 79 Q78 89 68 89 L32 89 Q22 89 22 79 L22 67 Q22 63 24 62 Z"/>
      <path d="M27 18 L73 33.5 L27 49" fill="none" stroke="#FBBF3C" stroke-width="10" stroke-linecap="round" stroke-linejoin="round"/>
    </g>
    <path transform="translate(21.68 0)" d="M5.03 17.59L5.03 14.13L14.55 14.13L14.55 17.59L5.03 17.59M4.74 21.47L1 21.47L7.86 2.16L12.20 2.16L18.83 21.47L15.09 21.47L9.51 4.71L10.58 4.71L4.74 21.47M24.81 21.81Q22.91 21.81 21.46 20.88Q20.02 19.94 19.22 18.30Q18.43 16.65 18.43 14.52Q18.43 12.37 19.24 10.74Q20.05 9.11 21.49 8.20Q22.94 7.29 24.81 7.29Q26.65 7.29 28.01 8.15Q29.37 9.00 30.14 10.61Q30.91 12.23 30.91 14.52Q30.91 16.74 30.14 18.37Q29.37 20.00 28.00 20.90Q26.62 21.81 24.81 21.81M25.46 18.38Q26.91 18.38 27.81 17.32Q28.72 16.25 28.72 14.55Q28.72 12.82 27.81 11.76Q26.91 10.70 25.46 10.70Q24.04 10.70 23.12 11.76Q22.20 12.82 22.20 14.52Q22.20 16.23 23.12 17.30Q24.04 18.38 25.46 18.38M32.27 21.47L29.49 21.47L28.55 18.18L28.81 18.18L28.81 11.24L28.55 11.24L28.55 2.16L32.27 2.16L32.27 21.47M34.90 27.00Q34.17 27.00 33.71 26.87Q33.26 26.74 33.12 26.69L33.12 23.57Q33.26 23.60 33.47 23.64Q33.68 23.68 34.00 23.68Q34.53 23.68 34.82 23.30Q35.10 22.92 35.10 22.26L35.10 7.61L38.82 7.61L38.82 22.75Q38.82 23.85 38.42 24.83Q38.02 25.81 37.16 26.40Q36.29 27.00 34.90 27.00M34.73 3.30Q34.73 2.28 35.34 1.64Q35.95 1.00 36.97 1.00Q37.99 1.00 38.60 1.64Q39.21 2.28 39.21 3.30Q39.21 4.26 38.60 4.88Q37.99 5.51 36.97 5.51Q35.95 5.51 35.34 4.88Q34.73 4.26 34.73 3.30M45.71 21.87Q44.17 21.87 43.01 21.29Q41.85 20.71 41.23 19.64Q40.60 18.58 40.60 17.16Q40.60 15.74 41.27 14.69Q41.93 13.65 43.10 13.06Q44.26 12.48 45.73 12.48Q47.75 12.48 49.01 13.40Q50.27 14.33 50.72 16.03L48.99 15.80L48.99 12.45Q48.99 11.66 48.43 11.04Q47.86 10.41 46.58 10.41Q45.79 10.41 44.83 10.60Q43.86 10.78 42.81 11.29L41.71 8.57Q42.93 7.97 44.30 7.63Q45.68 7.29 47.07 7.29Q48.97 7.29 50.21 7.97Q51.46 8.66 52.09 9.85Q52.71 11.04 52.71 12.57L52.71 21.47L49.76 21.47L48.97 18.83L50.72 18.32Q50.24 20.00 48.95 20.93Q47.66 21.87 45.71 21.87M46.73 19.03Q47.75 19.03 48.37 18.52Q48.99 18.01 48.99 17.16Q48.99 16.28 48.37 15.79Q47.75 15.29 46.73 15.29Q45.71 15.29 45.08 15.79Q44.46 16.28 44.46 17.16Q44.46 18.01 45.08 18.52Q45.71 19.03 46.73 19.03M55.15 7.61L57.93 7.61L58.86 11.43L58.86 21.47L55.15 21.47L55.15 7.61M58.10 13.33L57.42 13.02L57.42 10.19L57.67 9.87Q57.98 9.36 58.62 8.77Q59.26 8.17 60.09 7.73Q60.93 7.29 61.84 7.29Q62.29 7.29 62.66 7.35Q63.03 7.41 63.23 7.55L63.23 10.92L62.32 10.92Q60.48 10.92 59.49 11.50Q58.49 12.09 58.10 13.33"/>
  </g>
</svg>
